<svg version="1.1" xmlns="http://www.w3.org/2000/svg" xmlns:xlink="http://www.w3.org/1999/xlink" x="0px" y="0px"
	 viewBox="-28 291 489 495" xml:space="preserve">
<style type="text/css">
	.st0{fill:#C4C4C4;}
	.st1{fill:#B8B8B9;}
	.st2{fill:#C1C0C0;}
	.st3{fill:#E6E6E5;}
	.st4{fill:#A7A8A8;}
	.st5{fill:#D0D0D0;}
	.st6{fill:#D3D3D3;}
	.st7{fill:#F3F3F3;}
	.st8{fill:#C4C4C3;}
	.st9{fill:#070607;}
	.st10{fill:#5997D1;}
	.st11{fill:#050203;}
	.st12{fill:#070507;}
	.st13{fill:#060304;}
	.st14{fill:#C55E1B;}
	.st15{fill:#E0E0E0;}
	.st16{fill:#D9D9D9;}
	.st17{fill:#F5F5F5;}
	.st18{fill:#EDEDEC;}
	.st19{fill:#CCCCCB;}
	.st20{fill:#FCFDFD;}
</style>
<g>
	<path class="st0" d="M-16.3,505.9c1.3-0.1,2.9-0.7,3.9-0.2c5.8,2.7,11.6,1.1,17.5,0.8c0.8,0,2.3,1.3,2.4,2.1
		c0.8,14,1.4,27.9,2.1,41.9c0.2,3.5,6.1,7.1,9.9,6c-1.3,0.6-2.7,1.7-3.9,1.6c-3.9-0.4-5.3,0.9-4.8,4.9c0.3,2.5,0.1,5,0.1,7.5
		c0.5,4,0.1,7.9,0.2,11.9c0,1-0.2,2,0.2,3c0,3,0.1,6.1,0.1,9.1c0.6,3.3-0.1,6.6,0.4,9.9c0.1,3.8,0.1,7.5,0.2,11.3
		c0.6,3.5-0.1,7,0.4,10.5c0.1,3.1,0.1,6.1,0.2,9.2c0.4,2.2,0.2,4.4,0.1,6.6c-0.8,0.4-1.3,0.1-1.9-0.4c-0.8-1.4-0.6-3-0.7-4.5
		c-0.2-4.2,0.3-8.5-0.3-12.7c0-2.5-0.2-5,0-7.4c0.4-3.8,0.1-7.7,0.2-11.5c0-1.7,0-3.4-0.5-5.1c-0.4-1.4-0.8-2.8-0.9-4.3
		c0-5.5-0.3-11-0.1-16.5c0-1.8-0.5-2.9-2.3-3.8c-2.2-1-3.9-2.5-5.6-4.4c-1.7-1.9-4.7-2.9-7.3-3.8c-0.9-0.3-1,0.5-1.3,1.1
		c-0.7,1.2-1.3,2.3-2.9,1.1c-0.8-20.1-1.6-40.2-2.2-60.3C-13.1,506.8-13.7,505.6-16.3,505.9z"/>
	<path class="st1" d="M10.9,605.1c0,4,0,8,0.1,12c0.7,2.3-0.2,4.8,0.5,7.1c0,5.8,0,11.6,0,17.4c1.5,2.2,0.7,4.7,1,7
		c0.2,7.5-0.1,7.7-7.5,7.6c-3.6-0.1-7.2,0.1-10.9-0.1c-0.8,0-2.1-1.2-2.1-1.9c-0.5-12-0.8-24.1-1.2-36.1c0.7-1.8-0.1-3.5,0-5.3
		c0.2-2.7,0.3-5.3,3.8-5.9c0.4-0.1,0.7-0.5,1.1-0.8c1.9-1.5,4.2-1.4,5.5,0.2c1.2,1.5,0.7,2.8-1.6,4.6c1.1-0.7,2.2-1.1,2.4-2.7
		c0.2-1.6,1.5-2.1,3-2.1c1.6,0.1,2.5,1,2.7,2.5c0.3,3.9,1.1,4.7-1.2,6.4c1.9-0.9,2-0.9,2-3.1c0.1-4.6-0.1-9.2,0.1-13.8
		c0-1.2-0.3-2.9,1.8-2.9c0,1.6,0,3.3,0,4.9C11.1,601.8,10.2,603.5,10.9,605.1z"/>
	<path class="st2" d="M10.4,595.3c-0.2,5-0.5,9.9-0.5,14.9c-0.1,7-0.9,7.6-8.3,5.2c0.5-0.4,0.9-0.9,1.3-0.9c5.2,0.5,3.8-3,3.6-5.8
		c-0.1-0.5-0.8-1.2-1.4-1.3c-0.6-0.1-1.6,0.2-1.9,0.7c-1.6,2.4-2.9,4.9-4.5,7.5c-0.5-2-1.1-3.8-1.5-5.6c0-0.2,0.9-0.7,1.4-1
		c0.7-0.3,1.5-0.5,2.2-0.8c-0.4-0.5-0.8-1.3-1.3-1.5c-0.9-0.2-1.9-0.1-2.8,0.1c-6.1,1.5-5,7-6,11.2c0-0.9,0-1.7-0.1-2.6
		c-0.6-2.5,0.1-5.2-0.4-7.7c-0.4-12.7-0.7-25.4-1.1-38.1c0.5-0.9,1.2-1.7,1.5-2.6c0.2-0.4-0.2-1.1-0.3-1.7c0.7,0,1.4-0.1,2,0.2
		c3,1.1,6.1,2.1,8.9,3.7c1.7,1,2.6,4.2,4.3,4.5c5.1,1.1,4.2,4.6,4.2,8C9.9,586.3,10.2,590.8,10.4,595.3z"/>
	<path class="st3" d="M19.6,555.5c-0.2-0.7-0.4-1.4-0.5-2.1c-0.4-14.8-0.8-29.5-1.1-44.3c0-0.7,0.6-1.4,0.9-2
		C19.2,523.3,19.4,539.4,19.6,555.5z"/>
	<path class="st2" d="M11.4,585.5c-0.1-5-0.3-9.9-0.4-14.9C11.1,575.6,11.2,580.5,11.4,585.5z"/>
	<path class="st1" d="M12.5,642.1c0-2.2,0-4.4,0.1-6.7c0,3.9,0,7.7,0,11.6C12.3,645.4,11.5,643.8,12.5,642.1z"/>
	<path class="st2" d="M12.4,626.3c-0.1-3.5-0.3-7-0.4-10.5C12.2,619.3,12.3,622.8,12.4,626.3z"/>
	<path class="st2" d="M11.9,604.5c-0.1-3.3-0.3-6.6-0.4-9.9C11.6,597.9,11.8,601.2,11.9,604.5z"/>
	<path class="st2" d="M12.5,642.1c0,1.7,0,3.3,0,5c0,0.5-0.1,1-0.1,1.5c-0.3-2.3-0.7-4.7-1-7C11.8,641.8,12.2,641.9,12.5,642.1z"/>
	<path class="st1" d="M-9.7,607.9c0.1,2.6,0.3,5.1,0.4,7.7C-9.4,613-9.6,610.4-9.7,607.9z"/>
	<path class="st2" d="M11.4,624.2c-0.2-2.4-0.3-4.7-0.5-7.1C11.1,619.4,11.3,621.8,11.4,624.2z"/>
	<path class="st2" d="M10.9,605.1c-0.2-1.6-0.3-3.3-0.5-4.9C10.6,601.8,10.7,603.5,10.9,605.1z"/>
	<g>
		<path class="st4" d="M445.6,505.2c0.2-1.5,0.4-3,0.7-4.4c-3.5,0.7-6.9,1.4-10.4,2.1c-1.2,0.2-2.4,0.6-3.7,0.6
			c-1.9,0-3.8-0.2-5.7-0.5c-0.7-0.1-1.3-0.8-2-1.2c-0.3,0.8-0.7,1.6-0.7,2.5c0,10.1-2.2,145.6-1.4,145.6c4.8,0.3,17.3,0.3,18.7,0
			l0,0l0,0c0.2-2.6,3.8-119.8,4.4-143.7C445.3,505.9,445,505.5,445.6,505.2z"/>
		<path class="st5" d="M454.5,492.4H296.6c0-0.1,0.1-0.3,0-0.5c-33.7,0-67.3-0.6-101,0.1c-24.9,0.5-49.9-0.2-74.8,0.4H-22.3
			l1.6,14.3h8.6c0.1,0.1,0.2,0.1,0.3,0.2c1.6,1.1,3.5,2.4,5.8,2c2.9-0.5,5.8-0.3,8.7-0.7c2.8-0.4,3.3,0.2,3.7,2.9
			c1.5,10.4,0.8,21,1.4,31.4c0.2,3.2,0.2,6.5,0.6,9.7c0.2,1.4,0.5,2.9,2.2,3.4c1.8,0.5,3.5,1.4,5.4,1.9c1.3,0.3,2.7,0.8,3.6-0.8
			c0-0.4,0-0.8,0-1.1c-0.6-1.7,0.1-3.4,0.1-5.1c0.3-9.9-0.8-19.7-0.6-29.6c0-1.6-0.2-3.2-0.4-4.8c-0.3-2.9-0.6-5.9,0.3-8.9
			c0.3-0.1,0.7-0.3,1-0.4h299.8c1.2,1.3,1.3,3.7,1.5,8.6c0.5,0,1-0.3,1-0.7c0.2-2.6,0.7-5.3,0.1-7.8h132.2L454.5,492.4L454.5,492.4z
			"/>
		<path class="st6" d="M413.8,502.2h-95.1V639h4.5c0.7,0.3,1.7,0.4,3.1,0.3c2.8-0.2,5.7-0.3,8.5-0.3h79L413.8,502.2L413.8,502.2z"/>
		<path class="st7" d="M454.5,492.8l-5.7-106.4c-0.1-1.9-1.7-3.4-3.7-3.4l-1.4-0.1l-323.5,0.7v-0.1c-0.7,0-1.5,0.1-2.2,0.1
			l-40.3,0.1c-25.4,0-50.7,0.1-76.1,0.1c-2,0-4,0-5.9,0.1h-11.2c-0.5,0-1.1-0.1-1.6,0.2c-0.1,2.8-0.3,5.7-0.4,8.5
			c-0.6,2.2,0.2,4.5-0.4,6.8l-0.1,4.2c-0.6,2.6,0.1,5.2-0.4,7.8l-0.1,5.2c-0.6,3.3,0.2,6.7-0.4,10c0,1.6-0.1,3.1-0.1,4.7
			c-0.4,1.5-0.2,3.1-0.2,4.6c0,0.3-0.1,0.7,0,1.1c-0.7,15.5-1.3,31.1-2,46.6l0,0c-0.2,3.1-0.4,6.2-0.6,9.3c0,3.3,2.6,2.5,4.3,2.5
			c37.4,0.1,74.7,0.1,112.1,0c1.2,0,2.6,0.3,3.5-0.4c3-2.3,6.4-1.7,9.7-1.7c52,0,104.1,0,156.1-0.1c11,0,21.9-0.5,32.9-0.4
			c3.5,0.1,7,0,10.5,0c0.7,0,1.5,0.1,2.1-0.3c0.4,0.3,1.1,0.3,1.7,0.3c47.2,0,94.3,0,141.5,0l0,0L454.5,492.8z M-19.1,438.3
			c0-0.3,0-0.6,0-0.9c0.1,0.1,0.2,0.2,0.3,0.2C-18.9,437.9-19,438.1-19.1,438.3z"/>
		<polygon class="st8" points="17.2,656.4 -10.5,656.4 -14.1,506.7 13.6,506.7 		"/>
		<g>
			<path class="st9" d="M238.8,417.6h-3.9l0,0l-5.7-26.2l0,0h-27.1l0,0l-5.9,26.2l0,0h-3.7c-2.8,0-5.1,2.3-5.1,5.1l0,0
				c0,2.8,2.3,5.1,5.1,5.1h46.3c2.8,0,5.1-2.3,5.1-5.1l0,0C243.9,419.9,241.6,417.6,238.8,417.6z"/>
			<path class="st9" d="M297,405.6H121.6c-3.4,0-6.2-2.8-6.2-6.2V303c0-3.4,2.8-6.2,6.2-6.2H297c3.4,0,6.2,2.8,6.2,6.2v96.4
				C303.3,402.8,300.5,405.6,297,405.6z"/>
			<path class="st10" d="M293.5,402.2H125.2c-3.4,0-6.2-2.8-6.2-6.2v-89.5c0-3.4,2.8-6.2,6.2-6.2h168.3c3.4,0,6.2,2.8,6.2,6.2V396
				C299.7,399.4,296.9,402.2,293.5,402.2z"/>
		</g>
	</g>
</g>
<g>
	<g>
		<path class="st11" d="M288.7,618.5c-4-14.8-8-29.7-11.9-44.6c-1.3-5.1-1.8-10.4-3.2-15.5c-2.2-8-5.6-10.9-13.9-11
			c-26.9-0.2-53.7-0.2-80.6,0c-9.6,0.1-13.1,3-15.3,12.4c-3.8,15.8-7.1,31.7-10.9,47.5c-0.7,3.1-2.3,5.9-3.4,8.9
			c0.1-0.7,0-1.5-0.3-2.1c-0.7-1.5-0.3,0.5-0.6-1.1c-2.4-12.6-9.1-20.7-22.5-22c-9.8-6.3-11.6-15.9-7.5-25.3
			c4.4-10.1,9.6-20.4,18.8-27.5c2.4-3.4,4.7-6.7,7.1-10.1c1.1-5,2.7-9.7,5.3-14.1c5.4-9.3,11.9-17.5,21.9-22.3
			c6.9-3.7,14.9-3,22.1-5.2c3.2-1,8.9-0.4,8.2-4.9c-0.7-4.7-5.8-2.4-9.1-2.1c-4,0.4-7.9,1.8-11.9,0.9c-2.7-0.6-3.8-2.7-4.2-5.3
			c2.6-18.5,4.6-36.8-0.8-55.3c-2.4-8.2,0.2-16.9,2.6-25.1c2-5.6,2.5-11.9,7.2-16.3c-5.5-8.8-9.4-18.1-7.2-28.7
			c0.9-4.2,2.5-8.3,4-13.6c10.1,5.5,13.5,15.1,20.1,23c10.9-6.8,22.2-8.4,33.3,0.7c6-8,11.7-15.6,18.2-24.4
			c9.4,14.1,8.7,26.4,0.8,38.7c-2.3,7.4,5,12.1,5.2,18.7c3.3,8.9,4.8,18.6,2.4,27.4c-4.9,17.8-1.8,35.1,0,52.5
			c-0.9,8.9-6.8,8.4-13.4,7.6c-5.6-0.7-11.6-4.3-18,1.7c10.8,5.9,21.9,5.8,32.6,7c13.6,3.9,22.4,13.3,29.1,25.1
			c3.1,4.2,5,9,5.8,14.1c2.5,3.3,4.9,6.7,7.4,10c8.1,6,14.9,13.4,23.5,18.9c10,6.4,8.5,19.2-1.6,30.7c-1.9,1.7-4,3.1-6.3,4.1
			c-1.1,0.5-2.2,0.9-3.4,1.3c-6.4,2.2-12.6,1.1-18.7-1.6c-5.4-2.4-7.3-0.1-7.5,5.2c-0.1,5.1,0.7,10.5-2.7,15.1
			C289.2,614,288.9,616.3,288.7,618.5z"/>
		<path class="st12" d="M261.2,780.1c-12.6-1.4-21.4-9.4-29.8-17.9c-2.4-16.8-0.7-33.1,5.6-48.8c12.8,0,25.6,0,38.5,0
			c-0.1,0.7-0.1,1.4,0,2.1c-2.2,4,0.2,8.7-1.8,12.7c-1.4,12.3-3.2,24.6-4.2,37C269,771.7,266.8,776.7,261.2,780.1z"/>
		<path class="st13" d="M175.8,710.3c8.1-0.1,16.3,0,24.4-0.3c3.8-0.1,6.3,0.9,7.3,4.6c5.3,8.4,3,18.2,5,27.2c0,2.5,0,5.1,0.2,7.6
			c0,1-0.2,1.9-0.7,2.8c-8,4.6-15.9,9.1-23.9,13.7c-5.8-4.2-7.8-9.9-8-17c-0.2-8.2-1.6-16.4-2.4-24.5c-1.7-3.3,0.2-7.1-1.5-10.4
			C176.1,712.8,176,711.5,175.8,710.3z"/>
	</g>
	<polygon class="st14" points="172.8,468.8 276.3,467.5 277.7,495.7 167.8,496.4 169.1,468.3 	"/>
</g>
<g>
	<path class="st15" d="M160.1,550.7c0.3-1.7,0.7-3.3,1-5c1.7,0,2.9,1,3.3,2.4c1.4,4.5,4.8,6.1,9,5.9c4.6-0.2,9.1,1,13.7,1
		c31.7-0.1,63.4-0.1,95.1-0.1c2,0,4-0.4,5.8,1c2.1,2.5,2.1,5.7,2.7,8.6c2.8,13.3,5.4,26.7,8.2,40.1c0.6,2.9,1.3,5.8,1.3,8.7
		c0.5-0.6,1-0.9,1.8-0.5c0.3,1.7,0.7,3.3,1,5c-0.5,1.1-0.1,2.3-0.2,3.5c0.2-0.7-0.3-1.5,0.4-2c0.2,14.8,0.5,29.5,0.5,44.3
		c0,14-0.4,27.9-0.4,41.9c0,3.2-0.9,4.4-4.4,4.4c-17.7-0.1-35.4,0.1-53,0.2c-0.9,0-1.8,0.5-2.7,0.7c-0.3,1.4-1.2,1.7-2.4,1.2
		c-3.7-1.5-7.5-1.1-11.2-0.7c-2.6,0.3-5.2,0.2-7.9,0c-4.5-0.4-9-0.9-13.5,0.4c-1.4,0.4-2.4-0.3-3.5-1c-2.8-0.3-5.7-0.8-8.5-0.8
		c-15.8,0-31.5,0.2-47.3,0.1c-1,0-2.9-1.4-2.9-2.2c-0.3-24.3-0.5-48.5-0.7-72.8c1.9-15.4,5.5-30.5,8.6-45.8
		c1.7-8.6,3.7-17.1,4.9-25.8c0.1-0.4,0.2-0.9,0.3-1.3C160.4,558.4,161.1,554.6,160.1,550.7z"/>
	<path class="st6" d="M204.8,710.7c10.8-0.4,21.7-0.8,32.5-1c2,0,4,0.7,6,1c0.6,0.8,1,1.7,1.8,2.2c3.4,2.2,6.9,4.2,10.3,6.2
		c0.7,1,0.9,2,0.1,3c-1.9,2.5-0.7,4.6,0.9,6.6c2.2,2.7,5,4.9,7.1,7.7c0.6,0.9,1.5,1.6,1.4,2.8c0,4-0.5,4.8-3.5,5
		c-9.7-6.4-19.4-12.8-29.2-19c-4.6-2.9-9.9-2.8-14.2-0.1c-10.5,6.6-20.7,13.8-30.9,20.9c-3.6,2.5-7,5.5-10.5,8.2
		c-0.4,0.2-0.9,0.1-1.3,0.3c-1.2,0.5-2.5,1.1-3.4-0.4c-0.9-1.4,0.1-2.4,0.9-3.4c3-3.8,6.5-7,9.9-10.4c1-1,2.1-2,3.1-3s1-2,0.9-3.4
		c-0.2-2.5-1.3-5-1-7.6c5.9-4.4,11.9-8.8,17.7-13.2C204,712.7,204.3,711.5,204.8,710.7z"/>
	<path class="st16" d="M261.4,744.3c0.9-1.8,1.8-3.6,2.7-5.3c1.4-0.8,2.2,0.3,3,1.1c2.4,2.3,4.3,5.1,6.8,7.4c0.9,0.8,1.7,1.7,2.9,2
		c2.2,1.6,4,3.7,6.1,5.3c3,2.3,5.8,2.7,8.9,0.5c0.8-0.6,1.7-1,2.8-1c3.1,9,0.3,16.5-7.1,19.2c-4.9,1.8-12.5-3.2-12.5-8.4
		c0-2.4,0.6-4.8,0.5-7.2c0-1.1-0.8-2.4-1.6-3.1C269.8,751.2,265.5,747.8,261.4,744.3z"/>
	<path class="st7" d="M160.1,550.7c3.6,2.6,1.8,5.9,1.2,9.1c-4.6,22.7-9.1,45.4-13.7,68c-0.5,2.5-1.4,4.9-2.1,7.3
		c-1.2-12.8,2.1-25,4.8-37.3C153.6,582.1,156.8,566.4,160.1,550.7z"/>
	<path class="st7" d="M301.8,610.6c-3.9-18.9-7.8-37.8-11.6-56.6l0,0c-0.5-3.2-0.6-6.5-1.6-9.6c-0.5-1.5-2.6-3.5-3.9-3.5
		c-18.3-0.1-36.6,0-54.9,0.1c-1,0.4-2,0.2-3,0.2c-19.9,0-39.8,0-59.6,0c-1,0-2-0.2-3,0.2c-0.8,0.6-1.7,1.1-2.5,1.7
		c0.3,0,0.6,0,0.9,0c0,0-0.1,0-0.1,0.1c-0.2,0.1-0.5,0-0.8,0c-0.2,0.9-0.4,1.8-0.6,2.7c1.4,2.4,2.4,6.1,4.4,6.8
		c5.5,1.9,11.5,3.5,17.3,3.5c33.6,0.3,67.1,0.1,100.7,0.2c1.5,0,3,0.4,4.5,0.5l0,0l0,0c0.1,0.8,0.1,1.6,0.3,2.4
		c2.9,14.2,5.8,28.3,8.7,42.5c1.1,5.5,2.3,10.9,3.4,16.5c0.7-2,1.2-3.7,1.8-5.4C302,612,302,611.3,301.8,610.6z"/>
	<path class="st17" d="M262.4,724.9c-2.3-1.9-4.7-3.8-7-5.7c-1.2,3-3.9,5.9-0.9,9.3c3.2,3.5,6.4,7.1,9.6,10.6c4,3.8,8,7.6,12,11.4
		l0,0l0,0c2.4,2,4.7,4.3,7.3,6.1c4,2.8,8.2,1.9,11.2-2.2C283.8,744.5,273.1,734.7,262.4,724.9z"/>
	<path class="st18" d="M229.7,540.9c-0.7,0.2-1.4,0.5-2.1,0.5c-21.2,0-42.3,0-63.5,0c0.4-0.1,0.9-0.3,1.3-0.3
		C186.9,541,208.3,541,229.7,540.9z"/>
	<path class="st19" d="M187.1,737.8c0.7-0.7,1.7-1.8,1.5-2.4c-0.8-3-2-6-3-9c-1.8,1.7-3.6,3.5-5.4,5.2c-3.4,3.2-6.9,6.3-10.3,9.5
		c0.4-0.1,0.8-0.1,1.2-0.1c-0.4,0.1-0.8,0.1-1.2,0.1c-2.4,2.2-4.7,4.5-7.1,6.7c-4.6,4.1-9.5,7.3-8.8,15.2c0.6,6.7,4.9,12.9,12,12.4
		c5.5-0.4,9.7-7,8.3-14.5c-0.6-3.2,0.3-4.9,2.4-6.7c-0.4-0.2-0.8-0.4-1.3-0.5c-0.9-0.1-1.8-0.2-2.8-0.3c0.5-0.8,0.9-1.7,1.6-2.4
		C178.4,746.7,182.8,742.3,187.1,737.8z"/>
	<path class="st20" d="M303.3,619.2c-0.1,0.9-0.2,1.9-0.3,2.8c-0.1,0-0.3,0-0.4-0.1c0.2-1.4,0.4-2.9,0.6-4.3
		C303.2,618.2,303.2,618.7,303.3,619.2z"/>
</g>
</svg>
